:SAMPLES-PER-SECOND 24
:FULLY-SPECIFIED
:DEGREES
114
root  -4.30634 40.9704 45.5107 175.998 47.5644 175.833
RightUpLeg  0.487992 -16.7224 -9.22728
RightLeg  15.86 14.554 5.62993
RightFoot  -1.46472 -0.634551 7.21826
RightToes  -1.74623e-010 0 -2.59999e-017
Spine  4.88654 1.58804 5.69123
Spine1  16.0866 4.28536 -7.07695
HEad  1.45185 35.2496 -18.9414
LeftShoulder1  1.79349 -3.23636 -20.1617
LeftArm  8.42701 15.2728 -47.3358
LeftForeArm  65.6256 -78.0403 -51.9664
LeftHand  0.00644199 4.81908 -8.30153
RightShoulder  2.63512 4.8672 25.4278
RightArm  3.97099 -6.8912 37.3884
RightForeArm  133.716 71.1073 146.524
RightHand  -0.355702 -13.0494 4.13513
LeftUpLeg  -8.32421 19.2257 -0.511959
LeftLeg  22.8134 -6.10125 -2.47995
LeftFoot  2.08572 1.18845 -10.1847
LeftToes  -6.27559e-011 -2.10356e-011 8.24929e-012
115
root  -4.46833 40.8162 46.3536 176.118 48.761 176.843
RightUpLeg  0.178109 -19.3046 -8.42198
RightLeg  16.3579 18.532 7.30831
RightFoot  -2.07164 -0.71528 8.6183
RightToes  -1.74623e-010 0 -2.59999e-017
Spine  5.40424 1.24702 5.42082
Spine1  15.9966 3.6931 -6.25136
HEad  0.0517129 36.7789 -19.4779
LeftShoulder1  1.72056 -3.05559 -19.756
LeftArm  8.21085 13.6632 -47.2527
LeftForeArm  72.7038 -79.0242 -59.4441
LeftHand  -0.0422165 5.63457 -3.42901
RightShoulder  2.58195 4.79299 25.052
RightArm  1.82371 -5.50849 36.0062
RightForeArm  127.722 70.1446 147.408
RightHand  -0.0391241 -9.81653 -0.456526
LeftUpLeg  -4.51289 20.0073 -2.01185
LeftLeg  23.3802 -7.24444 -3.08129
LeftFoot  0.961921 0.686652 -6.32948
LeftToes  -6.27559e-011 -2.10356e-011 8.24929e-012
116
root  -4.64255 40.4938 47.3854 178.663 50.0878 179.978
RightUpLeg  -2.77375 -24.0887 -4.73663
RightLeg  19.9983 22.6861 9.0409
RightFoot  -2.66582 -0.453556 5.7487
RightToes  -1.74623e-010 0 -2.59999e-017
Spine  5.82312 1.01149 3.88628
Spine1  15.6514 2.46054 -3.86195
HEad  -1.52475 38.8013 -19.3171
LeftShoulder1  1.71841 -2.94668 -20.1933
LeftArm  7.63532 11.0345 -46.4317
LeftForeArm  68.7551 -78.4803 -54.5069
LeftHand  -0.0149392 5.98487 2.90058
RightShoulder  2.66576 4.86683 25.8111
RightArm  -0.801315 -3.65628 34.8479
RightForeArm  124.631 71.2112 145.025
RightHand  0.0848024 -7.62145 -6.27836
LeftUpLeg  -2.15791 17.6036 -1.57683
LeftLeg  20.3526 -3.14585 -0.984686
LeftFoot  -3.36195 0.027589 0.0743902
LeftToes  -6.27559e-011 -2.10356e-011 8.24929e-012
117
root  -4.9165 40.0016 48.6198 -177.705 52.3137 -176.599
RightUpLeg  -10.7414 -27.1362 -0.117704
RightLeg  30.6126 24.7826 14.7841
RightFoot  -0.946229 -0.291273 3.40086
RightToes  -1.74623e-010 0 -2.59999e-017
Spine  6.29664 1.21263 0.0630973
Spine1  15.3413 1.09501 -0.0678668
HEad  -4.37263 41.2246 -19.8957
LeftShoulder1  1.78531 -3.06503 -20.7683
LeftArm  6.25572 8.0253 -45.4439
LeftForeArm  51.8978 -75.0511 -38.6914
LeftHand  -0.0437638 5.14737 9.0778
RightShoulder  2.78191 4.99539 26.7341
RightArm  -3.89386 -1.38721 35.4754
RightForeArm  125.366 73.3653 140.386
RightHand  0.245962 -8.13888 -11.4786
LeftUpLeg  -2.96735 11.2826 0.0260784
LeftLeg  17.7052 7.17927 1.38441
LeftFoot  -8.26488 -0.0258794 2.78795
LeftToes  -6.27559e-011 -2.10356e-011 8.24929e-012
118
root  -5.16511 39.4323 49.9117 -177.158 53.6731 -177.289
RightUpLeg  -20.8568 -31.3901 0.850462
RightLeg  44.9487 26.988 25.7266
RightFoot  3.20218 -1.82481 14.4041
RightToes  -1.74623e-010 0 -2.59999e-017
Spine  6.55181 1.18306 -6.89528
Spine1  15.2771 -0.50378 3.65348
HEad  -7.38883 43.421 -21.323
LeftShoulder1  1.83205 -3.27437 -20.6109
LeftArm  5.35973 4.16082 -44.1142
LeftForeArm  33.8316 -67.2654 -23.9801
LeftHand  -0.0419651 5.14139 12.5636
RightShoulder  2.88152 5.08679 27.5753
RightArm  -7.42117 -0.425281 39.1235
RightForeArm  128.721 75.7927 133.947
RightHand  0.545746 -10.1552 -13.9573
LeftUpLeg  -6.61724 9.66137 0.504407
LeftLeg  19.7459 11.0642 1.90628
LeftFoot  -11.1318 0.0624233 2.45272
LeftToes  -6.27559e-011 -2.10356e-011 8.24929e-012
119
root  -5.29956 39.1151 51.1225 -178.448 51.8217 -179.78
RightUpLeg  -27.3929 -38.2725 -1.06541
RightLeg  53.0578 26.7287 32.5233
RightFoot  5.3566 -4.30735 29.1847
RightToes  -1.74623e-010 0 -2.59999e-017
Spine  7.31944 0.0820517 -12.1036
Spine1  14.7007 -2.36717 5.20133
HEad  -8.717 44.4932 -22.4337
LeftShoulder1  1.80964 -3.31304 -20.0947
LeftArm  5.54253 0.300798 -42.393
LeftForeArm  29.8432 -59.8703 -16.6628
LeftHand  0.270659 10.2807 8.46325
RightShoulder  3.05034 5.25499 28.8955
RightArm  -10.0718 -2.90791 43.7863
RightForeArm  135.168 77.4984 128.906
RightHand  0.847876 -12.7505 -13.8649
LeftUpLeg  -10.5775 13.8638 0.0709537
LeftLeg  22.9567 5.677 0.536733
LeftFoot  -11.2639 0.065452 2.48311
LeftToes  -6.27559e-011 -2.10356e-011 8.24929e-012
120
root  -5.38126 39.2471 52.1111 -177.522 50.0991 -178.647
RightUpLeg  -27.2757 -42.2287 -3.42688
RightLeg  51.6829 23.0293 27.8088
RightFoot  4.59757 -4.29358 30.1254
RightToes  -1.74623e-010 0 -2.59999e-017
Spine  7.83738 -0.736923 -10.5681
Spine1  14.6342 -2.6892 3.51891
HEad  -8.46929 44.1238 -22.5203
LeftShoulder1  1.78262 -3.20939 -20.1031
LeftArm  3.7669 -0.548045 -41.6302
LeftForeArm  45.1142 -59.3917 -14.8344
LeftHand  -0.441194 15.2286 -4.01596
RightShoulder  3.20521 5.45533 29.8691
RightArm  -9.5108 -7.72194 46.0204
RightForeArm  141.777 78.2531 127.212
RightHand  0.842124 -15.7664 -10.1107
LeftUpLeg  -12.0019 14.6853 1.5996
LeftLeg  22.5925 3.2457 -0.026165
LeftFoot  -9.08662 0.0152547 2.06908
LeftToes  -6.27559e-011 -2.10356e-011 8.24929e-012
